<mxfile host="app.diagrams.net" modified="2024-06-03T16:39:44.838Z" agent="Mozilla/5.0 (Windows NT 10.0; Win64; x64) AppleWebKit/537.36 (KHTML, like Gecko) Chrome/125.0.0.0 Safari/537.36" etag="V-I5anV0S729qxFBXrjK" version="24.4.13" type="github" pages="2">
  <diagram id="R2lEEEUBdFMjLlhIrx00" name="Page-1">
    <mxGraphModel dx="1323" dy="820" grid="1" gridSize="10" guides="1" tooltips="1" connect="1" arrows="1" fold="1" page="1" pageScale="1" pageWidth="827" pageHeight="1169" math="0" shadow="0" extFonts="Permanent Marker^https://fonts.googleapis.com/css?family=Permanent+Marker">
      <root>
        <mxCell id="0" />
        <mxCell id="1" parent="0" />
        <mxCell id="6zUVTPtAAnP7IrVcOmZM-84" value="&lt;font data-font-src=&quot;https://fonts.googleapis.com/css?family=Sarabun&quot; face=&quot;Sarabun&quot;&gt;กิจกรรมที่ 1&lt;/font&gt;" style="text;strokeColor=none;fillColor=none;html=1;fontSize=24;fontStyle=1;verticalAlign=middle;align=center;" vertex="1" parent="1">
          <mxGeometry x="370" y="40" width="100" height="40" as="geometry" />
        </mxCell>
        <mxCell id="6zUVTPtAAnP7IrVcOmZM-85" value="&lt;font style=&quot;font-size: 18px;&quot; data-font-src=&quot;https://fonts.googleapis.com/css?family=Sarabun&quot; face=&quot;Sarabun&quot;&gt;การออกแบบฐานข้อมูลเชิงแนวคิดโดยใช้ อี-อาร์ โมเดล&lt;/font&gt;" style="text;strokeColor=none;fillColor=none;html=1;fontSize=24;fontStyle=1;verticalAlign=middle;align=center;" vertex="1" parent="1">
          <mxGeometry x="370" y="70" width="100" height="40" as="geometry" />
        </mxCell>
        <mxCell id="6zUVTPtAAnP7IrVcOmZM-86" value="&lt;font face=&quot;Sarabun&quot;&gt;&lt;span style=&quot;font-size: 18px;&quot;&gt;1.การวิเคราะห์หาเอาทิตี้และแอตทริบิวต์&lt;/span&gt;&lt;/font&gt;" style="text;strokeColor=none;fillColor=none;html=1;fontSize=24;fontStyle=1;verticalAlign=middle;align=left;" vertex="1" parent="1">
          <mxGeometry x="70" y="110" width="420" height="40" as="geometry" />
        </mxCell>
        <mxCell id="6zUVTPtAAnP7IrVcOmZM-88" value="&lt;font face=&quot;Sarabun&quot;&gt;&lt;span style=&quot;font-size: 18px;&quot;&gt;1.1 แอตทริบิวของเอนทิตี้ COMPANY&lt;/span&gt;&lt;/font&gt;" style="text;strokeColor=none;fillColor=none;html=1;fontSize=24;fontStyle=1;verticalAlign=middle;align=left;" vertex="1" parent="1">
          <mxGeometry x="120" y="140" width="420" height="40" as="geometry" />
        </mxCell>
        <mxCell id="6zUVTPtAAnP7IrVcOmZM-89" value="&lt;b&gt;&lt;font style=&quot;font-size: 16px;&quot;&gt;COMPANY&lt;/font&gt;&lt;/b&gt;" style="whiteSpace=wrap;html=1;align=center;" vertex="1" parent="1">
          <mxGeometry x="350" y="300" width="100" height="40" as="geometry" />
        </mxCell>
        <mxCell id="6zUVTPtAAnP7IrVcOmZM-92" value="&lt;font style=&quot;font-size: 14px;&quot;&gt;COMP_ID&lt;/font&gt;" style="ellipse;whiteSpace=wrap;html=1;align=center;fontStyle=5;" vertex="1" parent="1">
          <mxGeometry x="140" y="300" width="130" height="40" as="geometry" />
        </mxCell>
        <mxCell id="6zUVTPtAAnP7IrVcOmZM-93" value="&lt;font style=&quot;font-size: 14px;&quot;&gt;COMP_NAME&lt;/font&gt;" style="ellipse;whiteSpace=wrap;html=1;align=center;" vertex="1" parent="1">
          <mxGeometry x="250" y="210" width="120" height="50" as="geometry" />
        </mxCell>
        <mxCell id="6zUVTPtAAnP7IrVcOmZM-94" value="&lt;font style=&quot;font-size: 14px;&quot;&gt;COMP_ADDRESS&lt;/font&gt;" style="ellipse;whiteSpace=wrap;html=1;align=center;" vertex="1" parent="1">
          <mxGeometry x="440" y="210" width="140" height="50" as="geometry" />
        </mxCell>
        <mxCell id="6zUVTPtAAnP7IrVcOmZM-95" value="&lt;font style=&quot;font-size: 14px;&quot;&gt;COMP_PERSON&lt;/font&gt;" style="ellipse;whiteSpace=wrap;html=1;align=center;" vertex="1" parent="1">
          <mxGeometry x="550" y="295" width="140" height="50" as="geometry" />
        </mxCell>
        <mxCell id="6zUVTPtAAnP7IrVcOmZM-96" value="" style="endArrow=none;html=1;rounded=0;exitX=0;exitY=0.5;exitDx=0;exitDy=0;entryX=1;entryY=0.5;entryDx=0;entryDy=0;" edge="1" parent="1" source="6zUVTPtAAnP7IrVcOmZM-89" target="6zUVTPtAAnP7IrVcOmZM-92">
          <mxGeometry relative="1" as="geometry">
            <mxPoint x="380" y="330" as="sourcePoint" />
            <mxPoint x="540" y="330" as="targetPoint" />
          </mxGeometry>
        </mxCell>
        <mxCell id="6zUVTPtAAnP7IrVcOmZM-97" value="" style="endArrow=none;html=1;rounded=0;exitX=1;exitY=0.5;exitDx=0;exitDy=0;entryX=0;entryY=0.5;entryDx=0;entryDy=0;" edge="1" parent="1" source="6zUVTPtAAnP7IrVcOmZM-89" target="6zUVTPtAAnP7IrVcOmZM-95">
          <mxGeometry relative="1" as="geometry">
            <mxPoint x="360" y="330" as="sourcePoint" />
            <mxPoint x="280" y="330" as="targetPoint" />
          </mxGeometry>
        </mxCell>
        <mxCell id="6zUVTPtAAnP7IrVcOmZM-98" value="" style="endArrow=none;html=1;rounded=0;entryX=0.25;entryY=0;entryDx=0;entryDy=0;exitX=0.755;exitY=0.93;exitDx=0;exitDy=0;exitPerimeter=0;" edge="1" parent="1" source="6zUVTPtAAnP7IrVcOmZM-93" target="6zUVTPtAAnP7IrVcOmZM-89">
          <mxGeometry relative="1" as="geometry">
            <mxPoint x="340" y="320" as="sourcePoint" />
            <mxPoint x="500" y="320" as="targetPoint" />
          </mxGeometry>
        </mxCell>
        <mxCell id="6zUVTPtAAnP7IrVcOmZM-99" value="" style="endArrow=none;html=1;rounded=0;entryX=0.75;entryY=0;entryDx=0;entryDy=0;exitX=0.245;exitY=0.931;exitDx=0;exitDy=0;exitPerimeter=0;" edge="1" parent="1" source="6zUVTPtAAnP7IrVcOmZM-94" target="6zUVTPtAAnP7IrVcOmZM-89">
          <mxGeometry relative="1" as="geometry">
            <mxPoint x="351" y="267" as="sourcePoint" />
            <mxPoint x="385" y="310" as="targetPoint" />
          </mxGeometry>
        </mxCell>
        <mxCell id="6zUVTPtAAnP7IrVcOmZM-100" value="&lt;font face=&quot;Sarabun&quot;&gt;&lt;span style=&quot;font-size: 18px;&quot;&gt;1.2 แอตทริบิวของเอนทิตี้ POSITION&lt;/span&gt;&lt;/font&gt;" style="text;strokeColor=none;fillColor=none;html=1;fontSize=24;fontStyle=1;verticalAlign=middle;align=left;" vertex="1" parent="1">
          <mxGeometry x="120" y="380" width="420" height="40" as="geometry" />
        </mxCell>
        <mxCell id="6zUVTPtAAnP7IrVcOmZM-101" value="&lt;b&gt;&lt;font style=&quot;font-size: 16px;&quot;&gt;POSITION&lt;/font&gt;&lt;/b&gt;" style="whiteSpace=wrap;html=1;align=center;" vertex="1" parent="1">
          <mxGeometry x="350" y="540" width="100" height="40" as="geometry" />
        </mxCell>
        <mxCell id="6zUVTPtAAnP7IrVcOmZM-102" value="&lt;font style=&quot;font-size: 14px;&quot;&gt;POS_ID&lt;/font&gt;" style="ellipse;whiteSpace=wrap;html=1;align=center;fontStyle=5;" vertex="1" parent="1">
          <mxGeometry x="140" y="540" width="130" height="40" as="geometry" />
        </mxCell>
        <mxCell id="6zUVTPtAAnP7IrVcOmZM-103" value="&lt;font style=&quot;font-size: 14px;&quot;&gt;POS_NAME&lt;/font&gt;" style="ellipse;whiteSpace=wrap;html=1;align=center;" vertex="1" parent="1">
          <mxGeometry x="190" y="460" width="120" height="50" as="geometry" />
        </mxCell>
        <mxCell id="6zUVTPtAAnP7IrVcOmZM-104" value="&lt;font style=&quot;font-size: 14px;&quot;&gt;POS_PERIOD&lt;/font&gt;" style="ellipse;whiteSpace=wrap;html=1;align=center;" vertex="1" parent="1">
          <mxGeometry x="330" y="440" width="140" height="50" as="geometry" />
        </mxCell>
        <mxCell id="6zUVTPtAAnP7IrVcOmZM-105" value="&lt;font style=&quot;font-size: 14px;&quot;&gt;POS_NUMBER&lt;/font&gt;" style="ellipse;whiteSpace=wrap;html=1;align=center;" vertex="1" parent="1">
          <mxGeometry x="550" y="535" width="140" height="50" as="geometry" />
        </mxCell>
        <mxCell id="6zUVTPtAAnP7IrVcOmZM-106" value="" style="endArrow=none;html=1;rounded=0;exitX=0;exitY=0.5;exitDx=0;exitDy=0;entryX=1;entryY=0.5;entryDx=0;entryDy=0;" edge="1" parent="1" source="6zUVTPtAAnP7IrVcOmZM-101" target="6zUVTPtAAnP7IrVcOmZM-102">
          <mxGeometry relative="1" as="geometry">
            <mxPoint x="380" y="570" as="sourcePoint" />
            <mxPoint x="540" y="570" as="targetPoint" />
          </mxGeometry>
        </mxCell>
        <mxCell id="6zUVTPtAAnP7IrVcOmZM-107" value="" style="endArrow=none;html=1;rounded=0;exitX=1;exitY=0.5;exitDx=0;exitDy=0;entryX=0;entryY=0.5;entryDx=0;entryDy=0;" edge="1" parent="1" source="6zUVTPtAAnP7IrVcOmZM-101" target="6zUVTPtAAnP7IrVcOmZM-105">
          <mxGeometry relative="1" as="geometry">
            <mxPoint x="360" y="570" as="sourcePoint" />
            <mxPoint x="280" y="570" as="targetPoint" />
          </mxGeometry>
        </mxCell>
        <mxCell id="6zUVTPtAAnP7IrVcOmZM-108" value="" style="endArrow=none;html=1;rounded=0;entryX=0.25;entryY=0;entryDx=0;entryDy=0;exitX=0.755;exitY=0.93;exitDx=0;exitDy=0;exitPerimeter=0;" edge="1" parent="1" source="6zUVTPtAAnP7IrVcOmZM-103" target="6zUVTPtAAnP7IrVcOmZM-101">
          <mxGeometry relative="1" as="geometry">
            <mxPoint x="340" y="560" as="sourcePoint" />
            <mxPoint x="500" y="560" as="targetPoint" />
          </mxGeometry>
        </mxCell>
        <mxCell id="6zUVTPtAAnP7IrVcOmZM-110" value="&lt;font style=&quot;font-size: 14px;&quot;&gt;POS_SALARY&lt;/font&gt;" style="ellipse;whiteSpace=wrap;html=1;align=center;" vertex="1" parent="1">
          <mxGeometry x="490" y="470" width="120" height="50" as="geometry" />
        </mxCell>
        <mxCell id="6zUVTPtAAnP7IrVcOmZM-111" value="" style="endArrow=none;html=1;rounded=0;exitX=0.5;exitY=0;exitDx=0;exitDy=0;entryX=0.5;entryY=1;entryDx=0;entryDy=0;" edge="1" parent="1" source="6zUVTPtAAnP7IrVcOmZM-101" target="6zUVTPtAAnP7IrVcOmZM-104">
          <mxGeometry relative="1" as="geometry">
            <mxPoint x="370" y="400" as="sourcePoint" />
            <mxPoint x="530" y="400" as="targetPoint" />
          </mxGeometry>
        </mxCell>
        <mxCell id="6zUVTPtAAnP7IrVcOmZM-112" value="" style="endArrow=none;html=1;rounded=0;entryX=0;entryY=1;entryDx=0;entryDy=0;" edge="1" parent="1" target="6zUVTPtAAnP7IrVcOmZM-110">
          <mxGeometry relative="1" as="geometry">
            <mxPoint x="430" y="540" as="sourcePoint" />
            <mxPoint x="410" y="500" as="targetPoint" />
          </mxGeometry>
        </mxCell>
        <mxCell id="6zUVTPtAAnP7IrVcOmZM-113" value="&lt;font face=&quot;Sarabun&quot;&gt;&lt;span style=&quot;font-size: 18px;&quot;&gt;1.3 แอตทริบิวของเอนทิตี้ QUALIFICATION&lt;/span&gt;&lt;/font&gt;" style="text;strokeColor=none;fillColor=none;html=1;fontSize=24;fontStyle=1;verticalAlign=middle;align=left;" vertex="1" parent="1">
          <mxGeometry x="120" y="620" width="420" height="40" as="geometry" />
        </mxCell>
        <mxCell id="6zUVTPtAAnP7IrVcOmZM-114" value="&lt;b&gt;&lt;font style=&quot;font-size: 16px;&quot;&gt;QUALIFICATION&lt;/font&gt;&lt;/b&gt;" style="whiteSpace=wrap;html=1;align=center;" vertex="1" parent="1">
          <mxGeometry x="330" y="705" width="144" height="40" as="geometry" />
        </mxCell>
        <mxCell id="6zUVTPtAAnP7IrVcOmZM-115" value="&lt;font style=&quot;font-size: 14px;&quot;&gt;QUAL_CODE&lt;/font&gt;" style="ellipse;whiteSpace=wrap;html=1;align=center;fontStyle=5;" vertex="1" parent="1">
          <mxGeometry x="164" y="700" width="130" height="50" as="geometry" />
        </mxCell>
        <mxCell id="6zUVTPtAAnP7IrVcOmZM-118" value="&lt;font style=&quot;font-size: 14px;&quot;&gt;QUAL_DESC&lt;/font&gt;" style="ellipse;whiteSpace=wrap;html=1;align=center;" vertex="1" parent="1">
          <mxGeometry x="524" y="700" width="140" height="50" as="geometry" />
        </mxCell>
        <mxCell id="6zUVTPtAAnP7IrVcOmZM-119" value="" style="endArrow=none;html=1;rounded=0;exitX=0;exitY=0.5;exitDx=0;exitDy=0;entryX=1;entryY=0.5;entryDx=0;entryDy=0;" edge="1" parent="1" source="6zUVTPtAAnP7IrVcOmZM-114" target="6zUVTPtAAnP7IrVcOmZM-115">
          <mxGeometry relative="1" as="geometry">
            <mxPoint x="384" y="735" as="sourcePoint" />
            <mxPoint x="544" y="735" as="targetPoint" />
          </mxGeometry>
        </mxCell>
        <mxCell id="6zUVTPtAAnP7IrVcOmZM-120" value="" style="endArrow=none;html=1;rounded=0;exitX=1;exitY=0.5;exitDx=0;exitDy=0;entryX=0;entryY=0.5;entryDx=0;entryDy=0;" edge="1" parent="1" source="6zUVTPtAAnP7IrVcOmZM-114" target="6zUVTPtAAnP7IrVcOmZM-118">
          <mxGeometry relative="1" as="geometry">
            <mxPoint x="364" y="735" as="sourcePoint" />
            <mxPoint x="284" y="735" as="targetPoint" />
          </mxGeometry>
        </mxCell>
        <mxCell id="6zUVTPtAAnP7IrVcOmZM-125" value="&lt;font face=&quot;Sarabun&quot;&gt;&lt;span style=&quot;font-size: 18px;&quot;&gt;1.4 แอตทริบิวของเอนทิตี้ APPLICANT&lt;/span&gt;&lt;/font&gt;" style="text;strokeColor=none;fillColor=none;html=1;fontSize=24;fontStyle=1;verticalAlign=middle;align=left;" vertex="1" parent="1">
          <mxGeometry x="120" y="790" width="420" height="40" as="geometry" />
        </mxCell>
        <mxCell id="6zUVTPtAAnP7IrVcOmZM-126" value="&lt;b&gt;&lt;font style=&quot;font-size: 16px;&quot;&gt;APPLICANT&lt;/font&gt;&lt;/b&gt;" style="whiteSpace=wrap;html=1;align=center;" vertex="1" parent="1">
          <mxGeometry x="165" y="1751" width="110" height="40" as="geometry" />
        </mxCell>
        <mxCell id="6zUVTPtAAnP7IrVcOmZM-127" value="&lt;font style=&quot;font-size: 14px;&quot;&gt;AP_ID&lt;/font&gt;" style="ellipse;whiteSpace=wrap;html=1;align=center;fontStyle=5;" vertex="1" parent="1">
          <mxGeometry x="21" y="1751" width="130" height="40" as="geometry" />
        </mxCell>
        <mxCell id="6zUVTPtAAnP7IrVcOmZM-128" value="&lt;font style=&quot;font-size: 14px;&quot;&gt;AP_NAME&lt;/font&gt;" style="ellipse;whiteSpace=wrap;html=1;align=center;" vertex="1" parent="1">
          <mxGeometry x="65" y="1681" width="120" height="50" as="geometry" />
        </mxCell>
        <mxCell id="6zUVTPtAAnP7IrVcOmZM-130" value="&lt;font style=&quot;font-size: 14px;&quot;&gt;AP_SEX&lt;/font&gt;" style="ellipse;whiteSpace=wrap;html=1;align=center;" vertex="1" parent="1">
          <mxGeometry x="274" y="1851" width="140" height="50" as="geometry" />
        </mxCell>
        <mxCell id="6zUVTPtAAnP7IrVcOmZM-131" value="" style="endArrow=none;html=1;rounded=0;exitX=0;exitY=0.5;exitDx=0;exitDy=0;entryX=1;entryY=0.5;entryDx=0;entryDy=0;" edge="1" parent="1" source="6zUVTPtAAnP7IrVcOmZM-126" target="6zUVTPtAAnP7IrVcOmZM-127">
          <mxGeometry relative="1" as="geometry">
            <mxPoint x="195" y="1781" as="sourcePoint" />
            <mxPoint x="355" y="1781" as="targetPoint" />
          </mxGeometry>
        </mxCell>
        <mxCell id="6zUVTPtAAnP7IrVcOmZM-132" value="" style="endArrow=none;html=1;rounded=0;exitX=0.75;exitY=1;exitDx=0;exitDy=0;entryX=0.067;entryY=0.287;entryDx=0;entryDy=0;entryPerimeter=0;" edge="1" parent="1" source="6zUVTPtAAnP7IrVcOmZM-126" target="6zUVTPtAAnP7IrVcOmZM-130">
          <mxGeometry relative="1" as="geometry">
            <mxPoint x="175" y="1781" as="sourcePoint" />
            <mxPoint x="95" y="1781" as="targetPoint" />
          </mxGeometry>
        </mxCell>
        <mxCell id="6zUVTPtAAnP7IrVcOmZM-133" value="" style="endArrow=none;html=1;rounded=0;entryX=0.25;entryY=0;entryDx=0;entryDy=0;exitX=0.755;exitY=0.93;exitDx=0;exitDy=0;exitPerimeter=0;" edge="1" parent="1" source="6zUVTPtAAnP7IrVcOmZM-128" target="6zUVTPtAAnP7IrVcOmZM-126">
          <mxGeometry relative="1" as="geometry">
            <mxPoint x="155" y="1771" as="sourcePoint" />
            <mxPoint x="315" y="1771" as="targetPoint" />
          </mxGeometry>
        </mxCell>
        <mxCell id="6zUVTPtAAnP7IrVcOmZM-134" value="&lt;font style=&quot;font-size: 14px;&quot;&gt;AP_ADDRESS&lt;/font&gt;" style="ellipse;whiteSpace=wrap;html=1;align=center;" vertex="1" parent="1">
          <mxGeometry x="185" y="1671" width="120" height="50" as="geometry" />
        </mxCell>
        <mxCell id="6zUVTPtAAnP7IrVcOmZM-136" value="" style="endArrow=none;html=1;rounded=0;entryX=0.5;entryY=1;entryDx=0;entryDy=0;" edge="1" parent="1" target="6zUVTPtAAnP7IrVcOmZM-134">
          <mxGeometry relative="1" as="geometry">
            <mxPoint x="245" y="1751" as="sourcePoint" />
            <mxPoint x="225" y="1711" as="targetPoint" />
          </mxGeometry>
        </mxCell>
        <mxCell id="6zUVTPtAAnP7IrVcOmZM-137" value="&lt;font style=&quot;font-size: 14px;&quot;&gt;AP_ED&lt;/font&gt;" style="ellipse;whiteSpace=wrap;html=1;align=center;" vertex="1" parent="1">
          <mxGeometry x="51" y="1801" width="120" height="50" as="geometry" />
        </mxCell>
        <mxCell id="6zUVTPtAAnP7IrVcOmZM-138" value="&lt;font style=&quot;font-size: 14px;&quot;&gt;AP_MAJ&lt;/font&gt;" style="ellipse;whiteSpace=wrap;html=1;align=center;" vertex="1" parent="1">
          <mxGeometry x="144" y="1851" width="120" height="50" as="geometry" />
        </mxCell>
        <mxCell id="6zUVTPtAAnP7IrVcOmZM-139" value="" style="endArrow=none;html=1;rounded=0;entryX=0.25;entryY=1;entryDx=0;entryDy=0;exitX=1;exitY=0;exitDx=0;exitDy=0;" edge="1" parent="1" source="6zUVTPtAAnP7IrVcOmZM-137" target="6zUVTPtAAnP7IrVcOmZM-126">
          <mxGeometry relative="1" as="geometry">
            <mxPoint x="139" y="1831" as="sourcePoint" />
            <mxPoint x="345" y="1591" as="targetPoint" />
          </mxGeometry>
        </mxCell>
        <mxCell id="6zUVTPtAAnP7IrVcOmZM-140" value="" style="endArrow=none;html=1;rounded=0;entryX=0.5;entryY=1;entryDx=0;entryDy=0;exitX=0.5;exitY=0;exitDx=0;exitDy=0;" edge="1" parent="1" source="6zUVTPtAAnP7IrVcOmZM-138" target="6zUVTPtAAnP7IrVcOmZM-126">
          <mxGeometry relative="1" as="geometry">
            <mxPoint x="149" y="1841" as="sourcePoint" />
            <mxPoint x="203" y="1801" as="targetPoint" />
          </mxGeometry>
        </mxCell>
        <mxCell id="6zUVTPtAAnP7IrVcOmZM-222" value="&lt;font data-font-src=&quot;https://fonts.googleapis.com/css?family=Sarabun&quot; face=&quot;Sarabun&quot;&gt;กิจกรรมที่ 1&lt;/font&gt;" style="text;strokeColor=none;fillColor=none;html=1;fontSize=24;fontStyle=1;verticalAlign=middle;align=center;" vertex="1" parent="1">
          <mxGeometry x="370" y="1210" width="100" height="40" as="geometry" />
        </mxCell>
        <mxCell id="6zUVTPtAAnP7IrVcOmZM-223" value="&lt;font style=&quot;font-size: 18px;&quot; data-font-src=&quot;https://fonts.googleapis.com/css?family=Sarabun&quot; face=&quot;Sarabun&quot;&gt;การออกแบบฐานข้อมูลเชิงแนวคิดโดยใช้ อี-อาร์ โมเดล&lt;/font&gt;" style="text;strokeColor=none;fillColor=none;html=1;fontSize=24;fontStyle=1;verticalAlign=middle;align=center;" vertex="1" parent="1">
          <mxGeometry x="370" y="1240" width="100" height="40" as="geometry" />
        </mxCell>
        <mxCell id="6zUVTPtAAnP7IrVcOmZM-224" value="&lt;font face=&quot;Sarabun&quot;&gt;&lt;span style=&quot;font-size: 18px;&quot;&gt;1.การวิเคราะห์หาความสัมพันธ์ระหว่างเอนทิตีและเขียนอี-อาร์ไดอะแกรม&lt;/span&gt;&lt;/font&gt;" style="text;strokeColor=none;fillColor=none;html=1;fontSize=24;fontStyle=1;verticalAlign=middle;align=left;" vertex="1" parent="1">
          <mxGeometry x="70" y="1280" width="560" height="40" as="geometry" />
        </mxCell>
        <mxCell id="6zUVTPtAAnP7IrVcOmZM-236" value="&lt;b&gt;&lt;font style=&quot;font-size: 16px;&quot;&gt;COMPANY&lt;/font&gt;&lt;/b&gt;" style="whiteSpace=wrap;html=1;align=center;" vertex="1" parent="1">
          <mxGeometry x="554" y="1751" width="100" height="40" as="geometry" />
        </mxCell>
        <mxCell id="6zUVTPtAAnP7IrVcOmZM-237" value="&lt;font style=&quot;font-size: 14px;&quot;&gt;COMP_ID&lt;/font&gt;" style="ellipse;whiteSpace=wrap;html=1;align=center;fontStyle=5;" vertex="1" parent="1">
          <mxGeometry x="584" y="1856" width="130" height="40" as="geometry" />
        </mxCell>
        <mxCell id="6zUVTPtAAnP7IrVcOmZM-238" value="&lt;font style=&quot;font-size: 14px;&quot;&gt;COMP_NAME&lt;/font&gt;" style="ellipse;whiteSpace=wrap;html=1;align=center;" vertex="1" parent="1">
          <mxGeometry x="688" y="1806" width="120" height="50" as="geometry" />
        </mxCell>
        <mxCell id="6zUVTPtAAnP7IrVcOmZM-239" value="&lt;font style=&quot;font-size: 14px;&quot;&gt;COMP_ADDRESS&lt;/font&gt;" style="ellipse;whiteSpace=wrap;html=1;align=center;" vertex="1" parent="1">
          <mxGeometry x="664" y="1681" width="140" height="50" as="geometry" />
        </mxCell>
        <mxCell id="6zUVTPtAAnP7IrVcOmZM-240" value="&lt;font style=&quot;font-size: 14px;&quot;&gt;COMP_PERSON&lt;/font&gt;" style="ellipse;whiteSpace=wrap;html=1;align=center;" vertex="1" parent="1">
          <mxGeometry x="674" y="1746" width="140" height="50" as="geometry" />
        </mxCell>
        <mxCell id="6zUVTPtAAnP7IrVcOmZM-241" value="" style="endArrow=none;html=1;rounded=0;exitX=0.25;exitY=1;exitDx=0;exitDy=0;entryX=0;entryY=0;entryDx=0;entryDy=0;" edge="1" parent="1" source="6zUVTPtAAnP7IrVcOmZM-236" target="6zUVTPtAAnP7IrVcOmZM-237">
          <mxGeometry relative="1" as="geometry">
            <mxPoint x="584" y="1781" as="sourcePoint" />
            <mxPoint x="744" y="1781" as="targetPoint" />
          </mxGeometry>
        </mxCell>
        <mxCell id="6zUVTPtAAnP7IrVcOmZM-242" value="" style="endArrow=none;html=1;rounded=0;exitX=1;exitY=0.5;exitDx=0;exitDy=0;entryX=0;entryY=0.5;entryDx=0;entryDy=0;" edge="1" parent="1" source="6zUVTPtAAnP7IrVcOmZM-236" target="6zUVTPtAAnP7IrVcOmZM-240">
          <mxGeometry relative="1" as="geometry">
            <mxPoint x="564" y="1781" as="sourcePoint" />
            <mxPoint x="484" y="1781" as="targetPoint" />
          </mxGeometry>
        </mxCell>
        <mxCell id="6zUVTPtAAnP7IrVcOmZM-243" value="" style="endArrow=none;html=1;rounded=0;exitX=0.028;exitY=0.275;exitDx=0;exitDy=0;exitPerimeter=0;" edge="1" parent="1" source="6zUVTPtAAnP7IrVcOmZM-238">
          <mxGeometry relative="1" as="geometry">
            <mxPoint x="544" y="1771" as="sourcePoint" />
            <mxPoint x="624" y="1791" as="targetPoint" />
          </mxGeometry>
        </mxCell>
        <mxCell id="6zUVTPtAAnP7IrVcOmZM-244" value="" style="endArrow=none;html=1;rounded=0;entryX=0.75;entryY=0;entryDx=0;entryDy=0;exitX=0.245;exitY=0.931;exitDx=0;exitDy=0;exitPerimeter=0;" edge="1" parent="1" source="6zUVTPtAAnP7IrVcOmZM-239" target="6zUVTPtAAnP7IrVcOmZM-236">
          <mxGeometry relative="1" as="geometry">
            <mxPoint x="555" y="1718" as="sourcePoint" />
            <mxPoint x="589" y="1761" as="targetPoint" />
          </mxGeometry>
        </mxCell>
        <mxCell id="6zUVTPtAAnP7IrVcOmZM-258" value="&lt;b&gt;&lt;font style=&quot;font-size: 16px;&quot;&gt;APPLICANT&lt;/font&gt;&lt;/b&gt;" style="whiteSpace=wrap;html=1;align=center;" vertex="1" parent="1">
          <mxGeometry x="350" y="960" width="110" height="40" as="geometry" />
        </mxCell>
        <mxCell id="6zUVTPtAAnP7IrVcOmZM-259" value="&lt;font style=&quot;font-size: 14px;&quot;&gt;AP_ID&lt;/font&gt;" style="ellipse;whiteSpace=wrap;html=1;align=center;fontStyle=5;" vertex="1" parent="1">
          <mxGeometry x="140" y="960" width="130" height="40" as="geometry" />
        </mxCell>
        <mxCell id="6zUVTPtAAnP7IrVcOmZM-260" value="&lt;font style=&quot;font-size: 14px;&quot;&gt;AP_NAME&lt;/font&gt;" style="ellipse;whiteSpace=wrap;html=1;align=center;" vertex="1" parent="1">
          <mxGeometry x="250" y="870" width="120" height="50" as="geometry" />
        </mxCell>
        <mxCell id="6zUVTPtAAnP7IrVcOmZM-261" value="&lt;font style=&quot;font-size: 14px;&quot;&gt;AP_SEX&lt;/font&gt;" style="ellipse;whiteSpace=wrap;html=1;align=center;" vertex="1" parent="1">
          <mxGeometry x="550" y="955" width="140" height="50" as="geometry" />
        </mxCell>
        <mxCell id="6zUVTPtAAnP7IrVcOmZM-262" value="" style="endArrow=none;html=1;rounded=0;exitX=0;exitY=0.5;exitDx=0;exitDy=0;entryX=1;entryY=0.5;entryDx=0;entryDy=0;" edge="1" parent="1" source="6zUVTPtAAnP7IrVcOmZM-258" target="6zUVTPtAAnP7IrVcOmZM-259">
          <mxGeometry relative="1" as="geometry">
            <mxPoint x="380" y="990" as="sourcePoint" />
            <mxPoint x="540" y="990" as="targetPoint" />
          </mxGeometry>
        </mxCell>
        <mxCell id="6zUVTPtAAnP7IrVcOmZM-263" value="" style="endArrow=none;html=1;rounded=0;exitX=1;exitY=0.5;exitDx=0;exitDy=0;entryX=0;entryY=0.5;entryDx=0;entryDy=0;" edge="1" parent="1" source="6zUVTPtAAnP7IrVcOmZM-258" target="6zUVTPtAAnP7IrVcOmZM-261">
          <mxGeometry relative="1" as="geometry">
            <mxPoint x="360" y="990" as="sourcePoint" />
            <mxPoint x="280" y="990" as="targetPoint" />
          </mxGeometry>
        </mxCell>
        <mxCell id="6zUVTPtAAnP7IrVcOmZM-264" value="" style="endArrow=none;html=1;rounded=0;entryX=0.25;entryY=0;entryDx=0;entryDy=0;exitX=0.755;exitY=0.93;exitDx=0;exitDy=0;exitPerimeter=0;" edge="1" parent="1" source="6zUVTPtAAnP7IrVcOmZM-260" target="6zUVTPtAAnP7IrVcOmZM-258">
          <mxGeometry relative="1" as="geometry">
            <mxPoint x="340" y="980" as="sourcePoint" />
            <mxPoint x="500" y="980" as="targetPoint" />
          </mxGeometry>
        </mxCell>
        <mxCell id="6zUVTPtAAnP7IrVcOmZM-265" value="&lt;font style=&quot;font-size: 14px;&quot;&gt;AP_ADDRESS&lt;/font&gt;" style="ellipse;whiteSpace=wrap;html=1;align=center;" vertex="1" parent="1">
          <mxGeometry x="440" y="870" width="120" height="50" as="geometry" />
        </mxCell>
        <mxCell id="6zUVTPtAAnP7IrVcOmZM-266" value="" style="endArrow=none;html=1;rounded=0;entryX=0;entryY=1;entryDx=0;entryDy=0;" edge="1" parent="1" target="6zUVTPtAAnP7IrVcOmZM-265">
          <mxGeometry relative="1" as="geometry">
            <mxPoint x="430" y="960" as="sourcePoint" />
            <mxPoint x="410" y="920" as="targetPoint" />
          </mxGeometry>
        </mxCell>
        <mxCell id="6zUVTPtAAnP7IrVcOmZM-267" value="&lt;font style=&quot;font-size: 14px;&quot;&gt;AP_ED&lt;/font&gt;" style="ellipse;whiteSpace=wrap;html=1;align=center;" vertex="1" parent="1">
          <mxGeometry x="250" y="1040" width="120" height="50" as="geometry" />
        </mxCell>
        <mxCell id="6zUVTPtAAnP7IrVcOmZM-268" value="&lt;font style=&quot;font-size: 14px;&quot;&gt;AP_MAJ&lt;/font&gt;" style="ellipse;whiteSpace=wrap;html=1;align=center;" vertex="1" parent="1">
          <mxGeometry x="440" y="1040" width="120" height="50" as="geometry" />
        </mxCell>
        <mxCell id="6zUVTPtAAnP7IrVcOmZM-269" value="" style="endArrow=none;html=1;rounded=0;entryX=0.25;entryY=1;entryDx=0;entryDy=0;" edge="1" parent="1" target="6zUVTPtAAnP7IrVcOmZM-258">
          <mxGeometry relative="1" as="geometry">
            <mxPoint x="324" y="1040" as="sourcePoint" />
            <mxPoint x="530" y="800" as="targetPoint" />
          </mxGeometry>
        </mxCell>
        <mxCell id="6zUVTPtAAnP7IrVcOmZM-270" value="" style="endArrow=none;html=1;rounded=0;entryX=0.686;entryY=0.999;entryDx=0;entryDy=0;entryPerimeter=0;exitX=0.293;exitY=0.034;exitDx=0;exitDy=0;exitPerimeter=0;" edge="1" parent="1" source="6zUVTPtAAnP7IrVcOmZM-268" target="6zUVTPtAAnP7IrVcOmZM-258">
          <mxGeometry relative="1" as="geometry">
            <mxPoint x="334" y="1050" as="sourcePoint" />
            <mxPoint x="388" y="1010" as="targetPoint" />
          </mxGeometry>
        </mxCell>
        <mxCell id="6zUVTPtAAnP7IrVcOmZM-271" value="&lt;b&gt;&lt;font style=&quot;font-size: 16px;&quot;&gt;POSITION&lt;/font&gt;&lt;/b&gt;" style="whiteSpace=wrap;html=1;align=center;" vertex="1" parent="1">
          <mxGeometry x="514" y="1490" width="100" height="40" as="geometry" />
        </mxCell>
        <mxCell id="6zUVTPtAAnP7IrVcOmZM-272" value="&lt;font style=&quot;font-size: 14px;&quot;&gt;POS_ID&lt;/font&gt;" style="ellipse;whiteSpace=wrap;html=1;align=center;fontStyle=5;" vertex="1" parent="1">
          <mxGeometry x="344" y="1425" width="130" height="40" as="geometry" />
        </mxCell>
        <mxCell id="6zUVTPtAAnP7IrVcOmZM-273" value="&lt;font style=&quot;font-size: 14px;&quot;&gt;POS_NAME&lt;/font&gt;" style="ellipse;whiteSpace=wrap;html=1;align=center;" vertex="1" parent="1">
          <mxGeometry x="424" y="1370" width="120" height="50" as="geometry" />
        </mxCell>
        <mxCell id="6zUVTPtAAnP7IrVcOmZM-274" value="&lt;font style=&quot;font-size: 14px;&quot;&gt;POS_PERIOD&lt;/font&gt;" style="ellipse;whiteSpace=wrap;html=1;align=center;" vertex="1" parent="1">
          <mxGeometry x="549" y="1360" width="140" height="50" as="geometry" />
        </mxCell>
        <mxCell id="6zUVTPtAAnP7IrVcOmZM-275" value="&lt;font style=&quot;font-size: 14px;&quot;&gt;POS_NUMBER&lt;/font&gt;" style="ellipse;whiteSpace=wrap;html=1;align=center;" vertex="1" parent="1">
          <mxGeometry x="655" y="1485" width="140" height="50" as="geometry" />
        </mxCell>
        <mxCell id="6zUVTPtAAnP7IrVcOmZM-276" value="" style="endArrow=none;html=1;rounded=0;exitX=0;exitY=0.25;exitDx=0;exitDy=0;entryX=1;entryY=1;entryDx=0;entryDy=0;" edge="1" parent="1" source="6zUVTPtAAnP7IrVcOmZM-271" target="6zUVTPtAAnP7IrVcOmZM-272">
          <mxGeometry relative="1" as="geometry">
            <mxPoint x="545" y="1520" as="sourcePoint" />
            <mxPoint x="705" y="1520" as="targetPoint" />
          </mxGeometry>
        </mxCell>
        <mxCell id="6zUVTPtAAnP7IrVcOmZM-277" value="" style="endArrow=none;html=1;rounded=0;exitX=1;exitY=0.5;exitDx=0;exitDy=0;entryX=0;entryY=0.5;entryDx=0;entryDy=0;" edge="1" parent="1" source="6zUVTPtAAnP7IrVcOmZM-271" target="6zUVTPtAAnP7IrVcOmZM-275">
          <mxGeometry relative="1" as="geometry">
            <mxPoint x="525" y="1520" as="sourcePoint" />
            <mxPoint x="445" y="1520" as="targetPoint" />
          </mxGeometry>
        </mxCell>
        <mxCell id="6zUVTPtAAnP7IrVcOmZM-278" value="" style="endArrow=none;html=1;rounded=0;entryX=0.25;entryY=0;entryDx=0;entryDy=0;exitX=0.714;exitY=0.968;exitDx=0;exitDy=0;exitPerimeter=0;" edge="1" parent="1" source="6zUVTPtAAnP7IrVcOmZM-273" target="6zUVTPtAAnP7IrVcOmZM-271">
          <mxGeometry relative="1" as="geometry">
            <mxPoint x="505" y="1510" as="sourcePoint" />
            <mxPoint x="665" y="1510" as="targetPoint" />
          </mxGeometry>
        </mxCell>
        <mxCell id="6zUVTPtAAnP7IrVcOmZM-279" value="&lt;font style=&quot;font-size: 14px;&quot;&gt;POS_SALARY&lt;/font&gt;" style="ellipse;whiteSpace=wrap;html=1;align=center;" vertex="1" parent="1">
          <mxGeometry x="615" y="1425" width="120" height="50" as="geometry" />
        </mxCell>
        <mxCell id="6zUVTPtAAnP7IrVcOmZM-280" value="" style="endArrow=none;html=1;rounded=0;exitX=0.5;exitY=0;exitDx=0;exitDy=0;entryX=0.5;entryY=1;entryDx=0;entryDy=0;" edge="1" parent="1" source="6zUVTPtAAnP7IrVcOmZM-271" target="6zUVTPtAAnP7IrVcOmZM-274">
          <mxGeometry relative="1" as="geometry">
            <mxPoint x="535" y="1350" as="sourcePoint" />
            <mxPoint x="695" y="1350" as="targetPoint" />
          </mxGeometry>
        </mxCell>
        <mxCell id="6zUVTPtAAnP7IrVcOmZM-281" value="" style="endArrow=none;html=1;rounded=0;entryX=0;entryY=1;entryDx=0;entryDy=0;" edge="1" parent="1" target="6zUVTPtAAnP7IrVcOmZM-279">
          <mxGeometry relative="1" as="geometry">
            <mxPoint x="595" y="1490" as="sourcePoint" />
            <mxPoint x="575" y="1450" as="targetPoint" />
          </mxGeometry>
        </mxCell>
        <mxCell id="6zUVTPtAAnP7IrVcOmZM-282" value="&lt;font style=&quot;font-size: 14px;&quot;&gt;APPLY FOR JOB&lt;/font&gt;" style="shape=rhombus;perimeter=rhombusPerimeter;whiteSpace=wrap;html=1;align=center;" vertex="1" parent="1">
          <mxGeometry x="343" y="1736" width="150" height="70" as="geometry" />
        </mxCell>
        <mxCell id="6zUVTPtAAnP7IrVcOmZM-283" value="&lt;font style=&quot;font-size: 14px;&quot;&gt;APPLY_DATE&lt;/font&gt;" style="ellipse;whiteSpace=wrap;html=1;align=center;" vertex="1" parent="1">
          <mxGeometry x="454" y="1901" width="120" height="50" as="geometry" />
        </mxCell>
        <mxCell id="6zUVTPtAAnP7IrVcOmZM-284" value="" style="endArrow=none;html=1;rounded=0;exitX=1;exitY=1;exitDx=0;exitDy=0;entryX=0.442;entryY=-0.001;entryDx=0;entryDy=0;entryPerimeter=0;" edge="1" parent="1" source="6zUVTPtAAnP7IrVcOmZM-282" target="6zUVTPtAAnP7IrVcOmZM-283">
          <mxGeometry relative="1" as="geometry">
            <mxPoint x="364" y="1711" as="sourcePoint" />
            <mxPoint x="504" y="1909" as="targetPoint" />
          </mxGeometry>
        </mxCell>
        <mxCell id="6zUVTPtAAnP7IrVcOmZM-286" value="" style="endArrow=none;html=1;rounded=0;exitX=1;exitY=0.5;exitDx=0;exitDy=0;entryX=0;entryY=0.5;entryDx=0;entryDy=0;" edge="1" parent="1" source="6zUVTPtAAnP7IrVcOmZM-126" target="6zUVTPtAAnP7IrVcOmZM-282">
          <mxGeometry relative="1" as="geometry">
            <mxPoint x="334" y="1731" as="sourcePoint" />
            <mxPoint x="524" y="1711" as="targetPoint" />
          </mxGeometry>
        </mxCell>
        <mxCell id="6zUVTPtAAnP7IrVcOmZM-287" value="M" style="resizable=0;html=1;whiteSpace=wrap;align=left;verticalAlign=bottom;" connectable="0" vertex="1" parent="6zUVTPtAAnP7IrVcOmZM-286">
          <mxGeometry x="-1" relative="1" as="geometry">
            <mxPoint x="9" as="offset" />
          </mxGeometry>
        </mxCell>
        <mxCell id="6zUVTPtAAnP7IrVcOmZM-289" value="" style="endArrow=none;html=1;rounded=0;entryX=0;entryY=0.5;entryDx=0;entryDy=0;" edge="1" parent="1" target="6zUVTPtAAnP7IrVcOmZM-236">
          <mxGeometry relative="1" as="geometry">
            <mxPoint x="494" y="1771" as="sourcePoint" />
            <mxPoint x="464" y="1741" as="targetPoint" />
          </mxGeometry>
        </mxCell>
        <mxCell id="6zUVTPtAAnP7IrVcOmZM-290" value="N" style="resizable=0;html=1;whiteSpace=wrap;align=right;verticalAlign=bottom;" connectable="0" vertex="1" parent="6zUVTPtAAnP7IrVcOmZM-289">
          <mxGeometry x="1" relative="1" as="geometry">
            <mxPoint x="-10" as="offset" />
          </mxGeometry>
        </mxCell>
        <mxCell id="6zUVTPtAAnP7IrVcOmZM-291" value="&lt;span style=&quot;font-size: 14px;&quot;&gt;OFFER JOB&lt;br&gt;POSITION&lt;/span&gt;" style="shape=rhombus;perimeter=rhombusPerimeter;whiteSpace=wrap;html=1;align=center;" vertex="1" parent="1">
          <mxGeometry x="504" y="1591" width="150" height="80" as="geometry" />
        </mxCell>
        <mxCell id="6zUVTPtAAnP7IrVcOmZM-292" value="" style="endArrow=none;html=1;rounded=0;exitX=0.5;exitY=0;exitDx=0;exitDy=0;entryX=0.5;entryY=1;entryDx=0;entryDy=0;" edge="1" parent="1" source="6zUVTPtAAnP7IrVcOmZM-291" target="6zUVTPtAAnP7IrVcOmZM-271">
          <mxGeometry relative="1" as="geometry">
            <mxPoint x="578" y="1611" as="sourcePoint" />
            <mxPoint x="564" y="1551" as="targetPoint" />
          </mxGeometry>
        </mxCell>
        <mxCell id="6zUVTPtAAnP7IrVcOmZM-293" value="N" style="resizable=0;html=1;whiteSpace=wrap;align=right;verticalAlign=bottom;" connectable="0" vertex="1" parent="6zUVTPtAAnP7IrVcOmZM-292">
          <mxGeometry x="1" relative="1" as="geometry">
            <mxPoint x="-10" y="20" as="offset" />
          </mxGeometry>
        </mxCell>
        <mxCell id="6zUVTPtAAnP7IrVcOmZM-294" value="" style="endArrow=none;html=1;rounded=0;exitX=0.5;exitY=0;exitDx=0;exitDy=0;entryX=0.5;entryY=1;entryDx=0;entryDy=0;" edge="1" parent="1" source="6zUVTPtAAnP7IrVcOmZM-236" target="6zUVTPtAAnP7IrVcOmZM-291">
          <mxGeometry relative="1" as="geometry">
            <mxPoint x="554" y="1781" as="sourcePoint" />
            <mxPoint x="714" y="1781" as="targetPoint" />
          </mxGeometry>
        </mxCell>
        <mxCell id="6zUVTPtAAnP7IrVcOmZM-295" value="M" style="resizable=0;html=1;whiteSpace=wrap;align=left;verticalAlign=bottom;" connectable="0" vertex="1" parent="6zUVTPtAAnP7IrVcOmZM-294">
          <mxGeometry x="-1" relative="1" as="geometry" />
        </mxCell>
        <mxCell id="6zUVTPtAAnP7IrVcOmZM-297" value="&lt;b&gt;&lt;font style=&quot;font-size: 16px;&quot;&gt;QUALIFICATION&lt;/font&gt;&lt;/b&gt;" style="whiteSpace=wrap;html=1;align=center;" vertex="1" parent="1">
          <mxGeometry x="165" y="1495" width="144" height="40" as="geometry" />
        </mxCell>
        <mxCell id="6zUVTPtAAnP7IrVcOmZM-298" value="&lt;font style=&quot;font-size: 14px;&quot;&gt;QUAL_CODE&lt;/font&gt;" style="ellipse;whiteSpace=wrap;html=1;align=center;fontStyle=5;" vertex="1" parent="1">
          <mxGeometry x="14" y="1490" width="130" height="50" as="geometry" />
        </mxCell>
        <mxCell id="6zUVTPtAAnP7IrVcOmZM-299" value="&lt;font style=&quot;font-size: 14px;&quot;&gt;QUAL_DESC&lt;/font&gt;" style="ellipse;whiteSpace=wrap;html=1;align=center;" vertex="1" parent="1">
          <mxGeometry x="104" y="1410" width="140" height="50" as="geometry" />
        </mxCell>
        <mxCell id="6zUVTPtAAnP7IrVcOmZM-300" value="" style="endArrow=none;html=1;rounded=0;exitX=0;exitY=0.5;exitDx=0;exitDy=0;entryX=1;entryY=0.5;entryDx=0;entryDy=0;" edge="1" parent="1" source="6zUVTPtAAnP7IrVcOmZM-297" target="6zUVTPtAAnP7IrVcOmZM-298">
          <mxGeometry relative="1" as="geometry">
            <mxPoint x="271" y="1520" as="sourcePoint" />
            <mxPoint x="431" y="1520" as="targetPoint" />
          </mxGeometry>
        </mxCell>
        <mxCell id="6zUVTPtAAnP7IrVcOmZM-301" value="" style="endArrow=none;html=1;rounded=0;exitX=0.411;exitY=-0.031;exitDx=0;exitDy=0;entryX=0.629;entryY=0.989;entryDx=0;entryDy=0;entryPerimeter=0;exitPerimeter=0;" edge="1" parent="1" source="6zUVTPtAAnP7IrVcOmZM-297" target="6zUVTPtAAnP7IrVcOmZM-299">
          <mxGeometry relative="1" as="geometry">
            <mxPoint x="251" y="1520" as="sourcePoint" />
            <mxPoint x="171" y="1520" as="targetPoint" />
          </mxGeometry>
        </mxCell>
        <mxCell id="6zUVTPtAAnP7IrVcOmZM-302" value="HAS&lt;br&gt;QUALIFICATION" style="shape=rhombus;perimeter=rhombusPerimeter;whiteSpace=wrap;html=1;align=center;" vertex="1" parent="1">
          <mxGeometry x="334" y="1535" width="150" height="80" as="geometry" />
        </mxCell>
        <mxCell id="6zUVTPtAAnP7IrVcOmZM-303" value="" style="endArrow=none;html=1;rounded=0;entryX=0;entryY=0.75;entryDx=0;entryDy=0;exitX=1;exitY=0;exitDx=0;exitDy=0;" edge="1" parent="1" source="6zUVTPtAAnP7IrVcOmZM-302" target="6zUVTPtAAnP7IrVcOmZM-271">
          <mxGeometry relative="1" as="geometry">
            <mxPoint x="324" y="1541" as="sourcePoint" />
            <mxPoint x="484" y="1541" as="targetPoint" />
          </mxGeometry>
        </mxCell>
        <mxCell id="6zUVTPtAAnP7IrVcOmZM-304" value="1" style="resizable=0;html=1;whiteSpace=wrap;align=right;verticalAlign=bottom;" connectable="0" vertex="1" parent="6zUVTPtAAnP7IrVcOmZM-303">
          <mxGeometry x="1" relative="1" as="geometry">
            <mxPoint x="-14" y="7" as="offset" />
          </mxGeometry>
        </mxCell>
        <mxCell id="6zUVTPtAAnP7IrVcOmZM-307" value="" style="endArrow=none;html=1;rounded=0;exitX=1;exitY=0.5;exitDx=0;exitDy=0;entryX=0;entryY=0;entryDx=0;entryDy=0;" edge="1" parent="1" source="6zUVTPtAAnP7IrVcOmZM-297" target="6zUVTPtAAnP7IrVcOmZM-302">
          <mxGeometry relative="1" as="geometry">
            <mxPoint x="394" y="1561" as="sourcePoint" />
            <mxPoint x="554" y="1561" as="targetPoint" />
          </mxGeometry>
        </mxCell>
        <mxCell id="6zUVTPtAAnP7IrVcOmZM-308" value="M" style="resizable=0;html=1;whiteSpace=wrap;align=left;verticalAlign=bottom;" connectable="0" vertex="1" parent="6zUVTPtAAnP7IrVcOmZM-307">
          <mxGeometry x="-1" relative="1" as="geometry">
            <mxPoint x="5" as="offset" />
          </mxGeometry>
        </mxCell>
        <mxCell id="6zUVTPtAAnP7IrVcOmZM-391" value="&lt;font data-font-src=&quot;https://fonts.googleapis.com/css?family=Sarabun&quot; face=&quot;Sarabun&quot;&gt;กิจกรรมที่ 2&lt;/font&gt;" style="text;strokeColor=none;fillColor=none;html=1;fontSize=24;fontStyle=1;verticalAlign=middle;align=center;" vertex="1" parent="1">
          <mxGeometry x="355" y="2390" width="100" height="40" as="geometry" />
        </mxCell>
        <mxCell id="6zUVTPtAAnP7IrVcOmZM-392" value="&lt;font style=&quot;font-size: 18px;&quot; data-font-src=&quot;https://fonts.googleapis.com/css?family=Sarabun&quot; face=&quot;Sarabun&quot;&gt;การออกแบบฐานข้อมูลเชิงแนวคิดโดยใช้ อี-อาร์ โมเดล&lt;/font&gt;" style="text;strokeColor=none;fillColor=none;html=1;fontSize=24;fontStyle=1;verticalAlign=middle;align=center;" vertex="1" parent="1">
          <mxGeometry x="355" y="2420" width="106" height="40" as="geometry" />
        </mxCell>
        <mxCell id="6zUVTPtAAnP7IrVcOmZM-393" value="&lt;font face=&quot;Sarabun&quot;&gt;&lt;span style=&quot;font-size: 18px;&quot;&gt;1.การวิเคราะห์หาความสัมพันธ์ระหว่างเอนทิตีและเขียนอี-อาร์ไดอะแกรม&lt;/span&gt;&lt;/font&gt;" style="text;strokeColor=none;fillColor=none;html=1;fontSize=24;fontStyle=1;verticalAlign=middle;align=left;" vertex="1" parent="1">
          <mxGeometry x="55" y="2460" width="560" height="40" as="geometry" />
        </mxCell>
      </root>
    </mxGraphModel>
  </diagram>
  <diagram id="Su93FPHdpRaYQxmF669g" name="Page-2">
    <mxGraphModel grid="1" page="1" gridSize="10" guides="1" tooltips="1" connect="1" arrows="1" fold="1" pageScale="1" pageWidth="827" pageHeight="1169" math="0" shadow="0">
      <root>
        <mxCell id="0" />
        <mxCell id="1" parent="0" />
      </root>
    </mxGraphModel>
  </diagram>
</mxfile>
